<?xml version="1.0" encoding="UTF-8" standalone="no"?>
<!DOCTYPE svg PUBLIC "-//W3C//DTD SVG 1.1//EN" "http://www.w3.org/Graphics/SVG/1.1/DTD/svg11.dtd">
<svg width="100%" height="100%" viewBox="0 0 32 32" version="1.1" xmlns="http://www.w3.org/2000/svg" xmlns:xlink="http://www.w3.org/1999/xlink" xml:space="preserve" xmlns:serif="http://www.serif.com/" style="fill-rule:evenodd;clip-rule:evenodd;stroke-linejoin:round;stroke-miterlimit:2;">
    <g>
        <g transform="matrix(1.44836,0,0,1.44836,-6.97247,-11.915)">
            <g transform="matrix(1.46154,-4.59549e-17,5.61389e-18,-0.224383,-2.71833,17.564)">
                <path d="M19,13.529C19.039,13.524 6.037,13.555 6,13.529L6,21.211C6,22.055 6.685,29 7.529,29L17.471,29C18.315,29 19,22.055 19,21.211L19,13.529Z" style="fill:rgb(126,166,168);"/>
            </g>
            <g transform="matrix(0.690436,0,0,0.690436,4.81404,8.22656)">
                <path d="M28.586,9.68C28.664,9.673 2.59,9.714 2.516,9.68L2.516,28.07C2.516,29.184 3.89,30.087 5.582,30.087L25.52,30.087C27.212,30.087 28.586,29.184 28.586,28.07L28.586,9.68ZM6.138,13.742C6.138,13.742 6.034,12.384 7.483,12.397C8.933,12.411 8.828,14 8.828,14L8.828,25C8.828,25 8.931,26.45 7.483,26.45C6.035,26.45 6.138,25 6.138,25L6.138,13.742ZM24.965,13.742C24.965,13 24.363,12.397 23.62,12.397C22.878,12.397 22.275,13 22.275,13.742L22.275,25.105C22.275,25.848 22.878,26.45 23.62,26.45C24.363,26.45 24.965,25.848 24.965,25.105L24.965,13.742ZM16.896,13.742C16.896,13 16.293,12.397 15.551,12.397C14.809,12.397 14.206,13 14.206,13.742L14.206,25.105C14.206,25.848 14.809,26.45 15.551,26.45C16.293,26.45 16.896,25.848 16.896,25.105L16.896,13.742Z" style="fill:rgb(126,166,168);"/>
            </g>
        </g>
        <g transform="matrix(1,0,0,1,-8.88178e-15,0.36209)">
            <path d="M11.206,4L11.206,3.09C11.352,2.319 11.625,1.633 12,1.014L19,1.014C19.637,1.684 19.83,2.382 19.896,3.09L19.896,4L18.448,4.441C18.594,3.73 18.424,3.02 18,2.309L13,2.309C12.642,3.181 12.556,3.873 12.654,4.441L11.206,4Z" style="fill:rgb(126,166,168);"/>
        </g>
    </g>
</svg>
