<?xml version="1.0" encoding="UTF-8" standalone="no"?>
<!DOCTYPE svg PUBLIC "-//W3C//DTD SVG 1.1//EN" "http://www.w3.org/Graphics/SVG/1.1/DTD/svg11.dtd">
<svg width="100%" height="100%" viewBox="0 0 32 32" version="1.1" xmlns="http://www.w3.org/2000/svg" xmlns:xlink="http://www.w3.org/1999/xlink" xml:space="preserve" xmlns:serif="http://www.serif.com/" style="fill-rule:evenodd;clip-rule:evenodd;stroke-linejoin:round;stroke-miterlimit:2;">
    <g transform="matrix(1,0,0,1,-3.84795,-5.96534)">
        <path d="M15.718,7.071C14.909,6.976 14.091,6.976 13.282,7.071L12.879,8.701C12.104,8.843 11.351,9.088 10.64,9.428L9.355,8.347C8.645,8.746 7.984,9.226 7.385,9.778L8.016,11.334C7.473,11.905 7.008,12.546 6.632,13.239L4.958,13.119C4.618,13.859 4.365,14.637 4.205,15.435L5.63,16.323C5.527,17.104 5.527,17.896 5.63,18.677L4.205,19.565C4.365,20.363 4.618,21.141 4.958,21.881L6.632,21.761C7.008,22.454 7.473,23.095 8.016,23.666L7.385,25.222C7.984,25.774 8.645,26.254 9.355,26.653L10.64,25.572C11.351,25.912 12.104,26.157 12.879,26.299L13.282,27.929C14.091,28.024 14.909,28.024 15.718,27.929L16.121,26.299C16.896,26.157 17.649,25.912 18.36,25.572L19.645,26.653C20.355,26.254 21.016,25.774 21.615,25.222L20.984,23.666C21.527,23.095 21.992,22.454 22.368,21.761L24.042,21.881C24.382,21.141 24.635,20.363 24.795,19.565L23.37,18.677C23.473,17.896 23.473,17.104 23.37,16.323L24.795,15.435C24.635,14.637 24.382,13.859 24.042,13.119L22.368,13.239C21.992,12.546 21.527,11.905 20.984,11.334L21.615,9.778C21.016,9.226 20.355,8.746 19.645,8.347L18.36,9.428C17.649,9.088 16.896,8.843 16.121,8.701L15.718,7.071ZM14.5,11.751C17.673,11.751 20.249,14.327 20.249,17.5C20.249,20.673 17.673,23.249 14.5,23.249C11.327,23.249 8.751,20.673 8.751,17.5C8.751,14.327 11.327,11.751 14.5,11.751Z" style="fill:rgb(126,166,168);"/>
    </g>
    <g transform="matrix(0.583095,0.315211,-0.315211,0.583095,20.1352,7.97364)">
        <path d="M15.718,7.071C14.909,6.976 14.091,6.976 13.282,7.071L12.879,8.701C12.104,8.843 11.351,9.088 10.64,9.428L9.355,8.347C8.645,8.746 7.984,9.226 7.385,9.778L8.016,11.334C7.473,11.905 7.008,12.546 6.632,13.239L4.958,13.119C4.618,13.859 4.365,14.637 4.205,15.435L5.63,16.323C5.527,17.104 5.527,17.896 5.63,18.677L4.205,19.565C4.365,20.363 4.618,21.141 4.958,21.881L6.632,21.761C7.008,22.454 7.473,23.095 8.016,23.666L7.385,25.222C7.984,25.774 8.645,26.254 9.355,26.653L10.64,25.572C11.351,25.912 12.104,26.157 12.879,26.299L13.282,27.929C14.091,28.024 14.909,28.024 15.718,27.929L16.121,26.299C16.896,26.157 17.649,25.912 18.36,25.572L19.645,26.653C20.355,26.254 21.016,25.774 21.615,25.222L20.984,23.666C21.527,23.095 21.992,22.454 22.368,21.761L24.042,21.881C24.382,21.141 24.635,20.363 24.795,19.565L23.37,18.677C23.473,17.896 23.473,17.104 23.37,16.323L24.795,15.435C24.635,14.637 24.382,13.859 24.042,13.119L22.368,13.239C21.992,12.546 21.527,11.905 20.984,11.334L21.615,9.778C21.016,9.226 20.355,8.746 19.645,8.347L18.36,9.428C17.649,9.088 16.896,8.843 16.121,8.701L15.718,7.071ZM14.5,11.751C17.673,11.751 20.249,14.327 20.249,17.5C20.249,20.673 17.673,23.249 14.5,23.249C11.327,23.249 8.751,20.673 8.751,17.5C8.751,14.327 11.327,11.751 14.5,11.751Z" style="fill:rgb(126,166,168);"/>
    </g>
</svg>
