<?xml version="1.0" encoding="UTF-8" standalone="no"?>
<!DOCTYPE svg PUBLIC "-//W3C//DTD SVG 1.1//EN" "http://www.w3.org/Graphics/SVG/1.1/DTD/svg11.dtd">
<svg width="100%" height="100%" viewBox="0 0 32 32" version="1.1" xmlns="http://www.w3.org/2000/svg" xmlns:xlink="http://www.w3.org/1999/xlink" xml:space="preserve" xmlns:serif="http://www.serif.com/" style="fill-rule:evenodd;clip-rule:evenodd;stroke-linejoin:round;stroke-miterlimit:2;">
    <g>
        <g transform="matrix(1.35225,0,0,1.35225,-8.11351,-9.46576)">
            <path d="M17.5,7C11.149,7 6,12.149 6,18.5L7.272,18.5C7.272,12.851 11.851,8.272 17.5,8.272L17.5,7Z" style="fill:rgb(12,29,66);"/>
        </g>
        <g transform="matrix(1.35225,0,0,1.35225,-8.11351,-9.4665)">
            <path d="M19.793,29.769C24.315,28.849 27.849,25.315 28.769,20.793L28.602,20.759C27.696,25.214 24.214,28.696 19.759,29.602L19.793,29.769Z" style="fill:rgb(12,29,66);"/>
        </g>
        <g transform="matrix(-1.35225,0,0,1.35225,38.903,-9.4665)">
            <path d="M19.793,29.769C24.315,28.849 27.849,25.315 28.769,20.793L28.602,20.759C27.696,25.214 24.214,28.696 19.759,29.602L19.793,29.769Z" style="fill:rgb(12,29,66);"/>
        </g>
        <g transform="matrix(1.35225,0,0,-1.35225,-8.11351,40.2553)">
            <path d="M19.793,29.769C24.315,28.849 27.849,25.315 28.769,20.793L28.602,20.759C27.696,25.214 24.214,28.696 19.759,29.602L19.793,29.769Z" style="fill:rgb(12,29,66);"/>
        </g>
    </g>
    <g transform="matrix(0.603891,0,0,1.05643,6.74015,-3.99618)">
        <g transform="matrix(1.14286,0,0,1.14286,-0.857143,-1.87122)">
            <g transform="matrix(1,0,0,0.773985,-0.070132,5.24454)">
                <circle cx="23.5" cy="21.5" r="1.5" style="fill:rgb(147,169,219);"/>
            </g>
            <g transform="matrix(1,0,0,1,-1,0.55986)">
                <path d="M27.531,24.843C27.838,24.654 28,24.439 28,24.221C28,23.534 26.432,22.977 24.5,22.977C22.568,22.977 21,23.534 21,24.221C21,24.439 21.162,24.654 21.469,24.843L27.531,24.843Z" style="fill:rgb(147,169,219);"/>
            </g>
        </g>
        <g transform="matrix(1.06416,0,0,0.99666,-2.7323,1.50059)">
            <g transform="matrix(1,0,0,0.773985,-0.070132,5.24454)">
                <circle cx="23.5" cy="21.5" r="1.5" style="fill:rgb(147,169,219);"/>
            </g>
            <g transform="matrix(1,0,0,1,-1,0.55986)">
                <path d="M27.531,24.843C27.838,24.654 28,24.439 28,24.221C28,23.534 26.432,22.977 24.5,22.977C22.568,22.977 21,23.534 21,24.221C21,24.439 21.162,24.654 21.469,24.843L27.531,24.843Z" style="fill:rgb(147,169,219);"/>
            </g>
        </g>
        <g transform="matrix(1.06416,0,0,0.99666,4.71682,1.50059)">
            <g transform="matrix(1,0,0,0.773985,-0.070132,5.24454)">
                <circle cx="23.5" cy="21.5" r="1.5" style="fill:rgb(147,169,219);"/>
            </g>
            <g transform="matrix(1,0,0,1,-1,0.55986)">
                <path d="M27.531,24.843C27.838,24.654 28,24.439 28,24.221C28,23.534 26.432,22.977 24.5,22.977C22.568,22.977 21,23.534 21,24.221C21,24.439 21.162,24.654 21.469,24.843L27.531,24.843Z" style="fill:rgb(147,169,219);"/>
            </g>
        </g>
    </g>
    <g transform="matrix(0.804485,0,0,0.804485,3.98212,2.83952)">
        <g transform="matrix(0.833333,0,0,1.25973,3,-2.59735)">
            <path d="M30,5.5C30,4.672 29.328,4 28.5,4L19.5,4C18.672,4 18,4.672 18,5.5L18,8.5C18,9.328 18.672,10 19.5,10L28.5,10C29.328,10 30,9.328 30,8.5L30,5.5ZM29.725,5.655C29.725,4.913 29.122,4.311 28.38,4.311L19.62,4.311C18.878,4.311 18.275,4.913 18.275,5.655L18.275,8.345C18.275,9.087 18.878,9.689 19.62,9.689L28.38,9.689C29.122,9.689 29.725,9.087 29.725,8.345L29.725,5.655Z" style="fill:rgb(147,169,219);"/>
        </g>
        <g transform="matrix(1,0,0,1.50135,0,-2.50344)">
            <rect x="18.23" y="4.361" width="9.541" height="0.177" style="fill:rgb(147,169,219);"/>
        </g>
        <g transform="matrix(1,0,0,1,0.297322,0.252105)">
            <rect x="19.447" y="1.937" width="0.57" height="0.504" style="fill:rgb(147,169,219);"/>
        </g>
        <g transform="matrix(1,0,0,1,6.01797,0.252105)">
            <rect x="19.447" y="1.937" width="0.57" height="0.504" style="fill:rgb(147,169,219);"/>
        </g>
        <g transform="matrix(1,0,0,1,0.0535929,-0.259386)">
            <g transform="matrix(1,0,0,1,-5,3.51877)">
                <circle cx="24.5" cy="5.5" r="0.5" style="fill:rgb(147,169,219);"/>
                <g transform="matrix(1,0,0,1,1.39281,0)">
                    <circle cx="24.5" cy="5.5" r="0.5" style="fill:rgb(147,169,219);"/>
                </g>
            </g>
            <g>
                <g transform="matrix(1,0,0,1,-5,1.16948)">
                    <circle cx="24.5" cy="5.5" r="0.5" style="fill:rgb(147,169,219);"/>
                    <g transform="matrix(1,0,0,1,1.39281,0)">
                        <circle cx="24.5" cy="5.5" r="0.5" style="fill:rgb(147,169,219);"/>
                    </g>
                </g>
                <g transform="matrix(1,0,0,1,-2.19641,1.17759)">
                    <circle cx="24.5" cy="5.5" r="0.5" style="fill:rgb(147,169,219);"/>
                    <g transform="matrix(1,0,0,1,1.39281,0)">
                        <circle cx="24.5" cy="5.5" r="0.5" style="fill:rgb(147,169,219);"/>
                    </g>
                </g>
                <g transform="matrix(1,0,0,1,0.5,1.16948)">
                    <circle cx="24.5" cy="5.5" r="0.5" style="fill:rgb(245,248,255);"/>
                    <g transform="matrix(1,0,0,1,1.39281,0)">
                        <circle cx="24.5" cy="5.5" r="0.5" style="fill:rgb(245,248,255);"/>
                    </g>
                </g>
            </g>
            <g transform="matrix(1,0,0,1,0,1.14334)">
                <g transform="matrix(1,0,0,1,-5,1.16948)">
                    <circle cx="24.5" cy="5.5" r="0.5" style="fill:rgb(147,169,219);"/>
                    <g transform="matrix(1,0,0,1,1.39281,0)">
                        <circle cx="24.5" cy="5.5" r="0.5" style="fill:rgb(147,169,219);"/>
                    </g>
                </g>
                <g transform="matrix(1,0,0,1,-2.19641,1.17759)">
                    <circle cx="24.5" cy="5.5" r="0.5" style="fill:rgb(147,169,219);"/>
                    <g transform="matrix(1,0,0,1,1.39281,0)">
                        <circle cx="24.5" cy="5.5" r="0.5" style="fill:rgb(147,169,219);"/>
                    </g>
                </g>
                <g transform="matrix(1,0,0,1,0.5,1.16948)">
                    <circle cx="24.5" cy="5.5" r="0.5" style="fill:rgb(147,169,219);"/>
                    <g transform="matrix(1,0,0,1,1.39281,0)">
                        <circle cx="24.5" cy="5.5" r="0.5" style="fill:rgb(147,169,219);"/>
                    </g>
                </g>
            </g>
            <g transform="matrix(1,0,0,1,0.5,0)">
                <circle cx="24.5" cy="5.5" r="0.5" style="fill:rgb(147,169,219);"/>
                <g transform="matrix(1,0,0,1,1.39281,0)">
                    <circle cx="24.5" cy="5.5" r="0.5" style="fill:rgb(147,169,219);"/>
                </g>
            </g>
        </g>
    </g>
    <g transform="matrix(0.243185,0,0,0.243185,11.7691,12.0123)">
        <g transform="matrix(0.177724,0,0,0.28661,-34.834,-77.3077)">
            <path d="M283.5,288C331.793,288 371,320.5 371,320.5C371,320.5 331.793,353 283.5,353C235.207,353 196,320.5 196,320.5C196,320.5 235.207,288 283.5,288ZM283.5,297.715C317.357,297.715 339.217,307.925 339.217,320.5C339.217,333.075 317.357,343.285 283.5,343.285C249.643,343.285 227.783,333.075 227.783,320.5C227.783,307.925 249.643,297.715 283.5,297.715Z" style="fill:rgb(12,29,66);"/>
        </g>
        <g transform="matrix(0.826531,0,0,1.28571,2.73966,-5.37769)">
            <circle cx="15.5" cy="15.5" r="3.5" style="fill:rgb(12,29,66);"/>
        </g>
    </g>
    <g>
        <g transform="matrix(0.107979,0,0,0.380952,14.0094,-0.375429)">
            <path d="M15.551,10L14.193,5.5L13,10L13,22L14.216,26.5L15.551,22L15.551,10Z" style="fill:rgb(147,169,219);"/>
        </g>
        <g transform="matrix(0.107979,0,0,0.380952,14.0094,19.2867)">
            <path d="M15.551,10L14.193,5.5L13,10L13,22L14.216,26.5L15.551,22L15.551,10Z" style="fill:rgb(147,169,219);"/>
        </g>
        <g transform="matrix(6.61182e-18,-0.107979,0.380952,2.33266e-17,19.2867,17.0923)">
            <path d="M15.551,10L14.193,5.5L13,10L13,22L14.216,26.5L15.551,22L15.551,10Z" style="fill:rgb(147,169,219);"/>
        </g>
        <g transform="matrix(6.61182e-18,-0.107979,0.380952,2.33266e-17,-0.375429,17.2301)">
            <path d="M15.551,10L14.193,5.5L13,10L13,22L14.216,26.5L15.551,22L15.551,10Z" style="fill:rgb(147,169,219);"/>
        </g>
        <g transform="matrix(-0.0271801,0.0470773,0.234676,0.13549,4.37396,5.2561)">
            <path d="M15.551,10L14.193,5.5L13,10L13,22L14.216,26.5L15.551,22L15.551,10Z" style="fill:rgb(147,169,219);"/>
        </g>
        <g transform="matrix(1.06261,0,0,1.06261,-0.905421,-1.91698)">
            <path d="M15.487,12.047C17.91,12.047 19.878,14.015 19.878,16.439C19.878,18.862 17.91,20.83 15.487,20.83C13.063,20.83 11.095,18.862 11.095,16.439C11.095,14.015 13.063,12.047 15.487,12.047ZM15.487,12.508C17.656,12.508 19.417,14.269 19.417,16.439C19.417,18.608 17.656,20.369 15.487,20.369C13.317,20.369 11.556,18.608 11.556,16.439C11.556,14.269 13.317,12.508 15.487,12.508Z" style="fill:rgb(147,169,219);"/>
        </g>
    </g>
    <g transform="matrix(1.19531,0,0,0.836717,-6.71926,10.7805)">
        <rect x="9.72" y="8" width="1.28" height="10" style="fill:rgb(147,169,219);"/>
        <g transform="matrix(1,0,0,0.6,2,7.2)">
            <rect x="9.72" y="8" width="1.28" height="10" style="fill:rgb(245,248,255);"/>
        </g>
        <g transform="matrix(1,0,0,0.7,4,5.4)">
            <rect x="9.72" y="8" width="1.28" height="10" style="fill:rgb(147,169,219);"/>
        </g>
        <g transform="matrix(1,0,0,0.5,5.83108,9)">
            <rect x="9.72" y="8" width="1.28" height="10" style="fill:rgb(12,29,66);"/>
        </g>
    </g>
</svg>
