<?xml version="1.0" standalone="no"?>
<!DOCTYPE svg PUBLIC "-//W3C//DTD SVG 20010904//EN"
 "http://www.w3.org/TR/2001/REC-SVG-20010904/DTD/svg10.dtd">
<svg version="1.0" xmlns="http://www.w3.org/2000/svg"
 width="768.000000pt" height="768.000000pt" viewBox="0 0 768.000000 768.000000"
 preserveAspectRatio="xMidYMid meet">

<g transform="translate(0.000000,768.000000) scale(0.100000,-0.100000)"
fill="#000000" stroke="none">
<path d="M3650 6464 l0 -514 205 0 205 0 0 358 c0 404 1 395 -82 495 -81 96
-182 155 -290 170 l-38 6 0 -515z"/>
<path d="M5313 5918 l-351 -353 138 -122 c76 -68 142 -123 147 -123 4 0 110
102 235 228 162 163 233 241 251 277 85 172 72 363 -29 425 -17 11 -33 20 -35
20 -2 0 -162 -159 -356 -352z"/>
<path d="M1855 6090 c-33 -10 -75 -32 -93 -47 l-33 -28 352 -368 c194 -202
355 -364 359 -360 3 4 59 67 123 139 64 73 117 136 117 141 0 5 -109 117 -242
249 -279 277 -292 285 -438 291 -64 2 -100 -2 -145 -17z"/>
<path d="M3700 5434 c-200 -26 -408 -102 -565 -207 -83 -56 -108 -77 -203
-170 -172 -170 -294 -396 -348 -647 -26 -119 -26 -381 0 -500 110 -512 494
-896 1006 -1006 119 -26 381 -26 500 0 513 111 895 493 1006 1006 26 119 26
381 0 500 -111 513 -494 896 -1006 1006 -73 15 -320 27 -390 18z"/>
<path d="M1274 4338 c-112 -36 -229 -191 -247 -325 l-5 -43 514 0 514 0 0 190
0 190 -372 -1 c-220 -1 -386 -5 -404 -11z"/>
<path d="M5630 4145 l0 -205 358 0 c355 0 357 0 407 24 131 62 239 207 258
349 l6 37 -515 0 -514 0 0 -205z"/>
<path d="M2189 2763 c-130 -131 -243 -250 -251 -264 -68 -111 -59 -315 17
-415 l28 -36 348 348 c192 192 349 353 349 359 0 13 -232 245 -245 245 -6 0
-116 -107 -246 -237z"/>
<path d="M5117 2882 c-64 -64 -117 -122 -117 -127 0 -6 107 -117 238 -247 200
-200 246 -241 296 -264 116 -53 283 -40 377 28 l42 30 -349 349 c-192 192
-353 349 -359 349 -6 0 -63 -53 -128 -118z"/>
<path d="M3646 2308 c-9 -102 -26 -476 -26 -568 0 -99 17 -145 82 -223 81 -96
182 -155 291 -170 l37 -6 0 515 0 514 -189 0 -189 0 -6 -62z"/>
</g>
</svg>
